<svg width="1400" height="400" xmlns="http://www.w3.org/2000/svg">
  <defs>
    <style>
      .node { fill: #2d3748; stroke: #4a5568; stroke-width: 2; rx: 8; }
      .start-node { fill: #38a169; }
      .condition-node { fill: #3182ce; }
      .api-node { fill: #805ad5; }
      .message-node { fill: #d69e2e; }
      .end-node { fill: #e53e3e; }
      .error-node { fill: #f56565; }
      .text { fill: white; font-family: Arial, sans-serif; font-size: 12px; text-anchor: middle; }
      .title { font-size: 14px; font-weight: bold; }
      .connection { stroke: #4a5568; stroke-width: 2; fill: none; marker-end: url(#arrowhead); }
      .error-connection { stroke: #f56565; stroke-dasharray: 5,5; }
      .success-connection { stroke: #38a169; }
    </style>
    <marker id="arrowhead" markerWidth="10" markerHeight="7" refX="9" refY="3.5" orient="auto">
      <polygon points="0 0, 10 3.5, 0 7" fill="#4a5568" />
    </marker>
  </defs>
  
  <!-- Background -->
  <rect width="1400" height="400" fill="#1a202c" />
  
  <!-- Title -->
  <text x="700" y="30" class="text title" fill="#e2e8f0">TRAE AWAKENS FLOW - Neuropul AI Architecture</text>
  
  <!-- Start Node -->
  <rect x="50" y="80" width="100" height="60" class="node start-node" />
  <text x="100" y="105" class="text title">START</text>
  <text x="100" y="120" class="text">WebApp Load</text>
  
  <!-- InitData Check -->
  <rect x="200" y="80" width="120" height="60" class="node condition-node" />
  <text x="260" y="100" class="text title">InitData</text>
  <text x="260" y="115" class="text">Validation</text>
  <text x="260" y="130" class="text">≥100 chars</text>
  
  <!-- Error Fallback -->
  <rect x="200" y="200" width="120" height="60" class="node error-node" />
  <text x="260" y="220" class="text title">Error</text>
  <text x="260" y="235" class="text">Fallback</text>
  <text x="260" y="250" class="text">Invalid Data</text>
  
  <!-- API Sync -->
  <rect x="370" y="80" width="120" height="60" class="node api-node" />
  <text x="430" y="100" class="text title">API Sync</text>
  <text x="430" y="115" class="text">/sync-progress</text>
  <text x="430" y="130" class="text">Get XP Data</text>
  
  <!-- API Error -->
  <rect x="370" y="200" width="120" height="60" class="node error-node" />
  <text x="430" y="220" class="text title">API Error</text>
  <text x="430" y="235" class="text">Retry Logic</text>
  <text x="430" y="250" class="text">Backoff</text>
  
  <!-- XP Check -->
  <rect x="540" y="80" width="120" height="60" class="node condition-node" />
  <text x="600" y="100" class="text title">XP Check</text>
  <text x="600" y="115" class="text">Branch Logic</text>
  <text x="600" y="130" class="text">≥50 / ≥100</text>
  
  <!-- PDF Generation -->
  <rect x="710" y="40" width="120" height="60" class="node api-node" />
  <text x="770" y="60" class="text title">PDF Gen</text>
  <text x="770" y="75" class="text">/api/pdf</text>
  <text x="770" y="90" class="text">High XP</text>
  
  <!-- XP Reward -->
  <rect x="710" y="120" width="120" height="60" class="node message-node" />
  <text x="770" y="140" class="text title">XP Reward</text>
  <text x="770" y="155" class="text">+25 XP</text>
  <text x="770" y="170" class="text">Medium XP</text>
  
  <!-- Low XP Message -->
  <rect x="710" y="200" width="120" height="60" class="node message-node" />
  <text x="770" y="220" class="text title">Low XP</text>
  <text x="770" y="235" class="text">Progress Msg</text>
  <text x="770" y="250" class="text">Motivation</text>
  
  <!-- PDF Delivery -->
  <rect x="880" y="40" width="120" height="60" class="node message-node" />
  <text x="940" y="60" class="text title">PDF Ready</text>
  <text x="940" y="75" class="text">Download</text>
  <text x="940" y="90" class="text">Link</text>
  
  <!-- CTA Portal -->
  <rect x="1050" y="120" width="120" height="60" class="node message-node" />
  <text x="1110" y="140" class="text title">Portal CTA</text>
  <text x="1110" y="155" class="text">Navigation</text>
  <text x="1110" y="170" class="text">Options</text>
  
  <!-- Final Screen -->
  <rect x="1220" y="120" width="120" height="60" class="node end-node" />
  <text x="1280" y="140" class="text title">COMPLETE</text>
  <text x="1280" y="155" class="text">Analytics</text>
  <text x="1280" y="170" class="text">Flow End</text>
  
  <!-- Connections -->
  <!-- Start to InitData -->
  <line x1="150" y1="110" x2="200" y2="110" class="connection" />
  
  <!-- InitData Success to API -->
  <line x1="320" y1="110" x2="370" y2="110" class="connection success-connection" />
  
  <!-- InitData Error to Fallback -->
  <line x1="260" y1="140" x2="260" y2="200" class="connection error-connection" />
  
  <!-- API Success to XP Check -->
  <line x1="490" y1="110" x2="540" y2="110" class="connection success-connection" />
  
  <!-- API Error to Error Handler -->
  <line x1="430" y1="140" x2="430" y2="200" class="connection error-connection" />
  
  <!-- XP Check to PDF (High XP) -->
  <line x1="660" y1="100" x2="710" y2="70" class="connection success-connection" />
  
  <!-- XP Check to Reward (Medium XP) -->
  <line x1="660" y1="110" x2="710" y2="150" class="connection" />
  
  <!-- XP Check to Low XP -->
  <line x1="660" y1="120" x2="710" y2="230" class="connection" />
  
  <!-- PDF to Delivery -->
  <line x1="830" y1="70" x2="880" y2="70" class="connection" />
  
  <!-- Delivery to CTA -->
  <line x1="1000" y1="70" x2="1050" y2="140" class="connection" />
  
  <!-- Reward to CTA -->
  <line x1="830" y1="150" x2="1050" y2="150" class="connection" />
  
  <!-- Low XP to CTA -->
  <line x1="830" y1="230" x2="1050" y2="160" class="connection" />
  
  <!-- CTA to Final -->
  <line x1="1170" y1="150" x2="1220" y2="150" class="connection" />
  
  <!-- Error Fallback to Final -->
  <line x1="320" y1="230" x2="1220" y2="230" class="connection error-connection" />
  <line x1="1280" y1="230" x2="1280" y2="180" class="connection error-connection" />
  
  <!-- Legend -->
  <text x="50" y="350" class="text" fill="#e2e8f0">Legend:</text>
  <line x1="120" y1="345" x2="160" y2="345" class="connection success-connection" />
  <text x="170" y="350" class="text" fill="#38a169">Success Path</text>
  <line x1="270" y1="345" x2="310" y2="345" class="connection error-connection" />
  <text x="320" y="350" class="text" fill="#f56565">Error Path</text>
  <line x1="400" y1="345" x2="440" y2="345" class="connection" />
  <text x="450" y="350" class="text" fill="#4a5568">Default Path</text>
  
  <!-- Node Types -->
  <rect x="600" y="330" width="60" height="20" class="node start-node" />
  <text x="630" y="345" class="text">Start/End</text>
  <rect x="700" y="330" width="60" height="20" class="node condition-node" />
  <text x="730" y="345" class="text">Condition</text>
  <rect x="800" y="330" width="60" height="20" class="node api-node" />
  <text x="830" y="345" class="text">API Call</text>
  <rect x="900" y="330" width="60" height="20" class="node message-node" />
  <text x="930" y="345" class="text">Message</text>
  <rect x="1000" y="330" width="60" height="20" class="node error-node" />
  <text x="1030" y="345" class="text">Error</text>
  
  <!-- Flow Stats -->
  <text x="1200" y="350" class="text" fill="#e2e8f0">Nodes: 12 | Connections: 13 | Complexity: Advanced</text>
</svg>